<svg xmlns="http://www.w3.org/2000/svg" fill="none" viewBox="0 0 512 512"><g clip-path="url(#a)"><path fill="#F4AD31" d="M256 216.68c26.771-21.752 61.072-34.301 98.719-34.301 20.078 0 39.32 4.183 57.726 10.876.836-6.693 1.673-14.222 1.673-20.915 0-87.007-70.275-157.281-157.281-157.281-87.007 0-157.281 70.274-157.281 157.281 0 7.529.836 14.222 1.673 20.915 17.568-6.693 36.81-10.876 57.725-10.876 35.974 0 70.275 13.386 97.046 34.301Z"/><path fill="#E2821A" d="M157.281 182.379c37.647 0 72.611 13.706 100.219 34.621 26.771-21.752 58.853-31.5 96.5-31.5 20.078 0 40.039 1.062 58.445 7.755.836-6.693 1.673-14.222 1.673-20.915 0-87.007-70.275-157.281-157.281-157.281"/><path fill="#D32A0F" d="M196.601 339.66c0-7.529 1.062-14.967 1.899-21.66-51.869-20.078-90.578-67.02-98.944-124.745C41.83 216.68 0 272.732 0 339.66c0 87.007 70.275 157.281 157.281 157.281 37.647 0 71.111-13.385 98.719-34.3-35.974-29.282-59.399-73.621-59.399-122.981Z"/><path fill="#B71100" d="M157.281 496.941c37.647 0 71.111-13.385 98.719-34.3-35.974-28.445-59.398-72.785-59.398-122.981 0-7.529.836-14.222 1.673-20.915"/><path fill="#0878A0" d="M411.608 193.255c-7.529 57.725-46.013 104.575-98.719 125.49.837 6.693 1.673 14.222 1.673 20.915 0 49.36-23.425 93.699-59.398 122.981 26.771 21.751 61.071 34.3 98.719 34.3C440.889 496.941 512 427.007 512 340c.837-66.928-41.83-123.32-100.392-146.745Z"/><path fill="#0C6C8E" d="M256 462.64c26.771 21.752 61.072 34.301 98.719 34.301C441.725 496.941 512 426.666 512 339.66"/><path fill="#3D3736" d="M256 216.68c-30.954 24.261-52.144 61.827-58 102.82 17.569 6.693 37.085 11 58 11 20.078 0 39.32-5.899 57.725-12.592-5.856-40.156-26.771-76.13-57.725-101.228Z"/><path fill="#000" d="M256 329.621c20.078 0 39.595-2.928 58-9.621-5.856-40.993-27.046-78.222-58-102.484"/><path fill="#0CAA7D" d="M313.725 318.745c51.87-20.079 90.353-67.765 98.719-125.491-17.568-6.692-36.81-10.875-57.725-10.875-36.81 0-71.111 13.385-98.719 34.3 30.954 25.098 51.869 61.072 57.725 102.066Z"/><path fill="#720D20" d="M256 216.679c-26.771-21.751-61.072-34.3-98.719-34.3-20.078 0-39.32 4.183-57.725 10.875 7.529 57.726 46.013 104.576 98.719 125.491 5.856-40.994 26.771-76.968 57.725-102.066Z"/><path fill="#783089" d="M315.399 339.66c0-7.529-.837-14.222-1.673-20.915-17.569 6.693-36.811 10.876-57.726 10.876-20.078 0-39.32-4.183-57.725-10.876-.837 6.693-1.674 14.222-1.674 20.915 0 49.36 23.425 93.7 59.399 122.981 35.974-29.281 59.399-73.621 59.399-122.981Z"/></g><defs><clipPath id="a"><path fill="#fff" d="M0 0h512v512H0z"/></clipPath></defs></svg>