<?xml version="1.0" standalone="no"?>
<!DOCTYPE svg PUBLIC "-//W3C//DTD SVG 20010904//EN"
 "http://www.w3.org/TR/2001/REC-SVG-20010904/DTD/svg10.dtd">
<svg version="1.0" xmlns="http://www.w3.org/2000/svg"
 width="512.000000pt" height="512.000000pt" viewBox="0 0 512.000000 512.000000"
 preserveAspectRatio="xMidYMid meet">
<metadata>
Created by potrace 1.11, written by Peter Selinger 2001-2013
</metadata>
<g transform="translate(0.000000,512.000000) scale(0.100000,-0.100000)"
fill="#000000" stroke="none">
<path d="M2420 4949 c-259 -27 -482 -103 -695 -235 -85 -53 -91 -58 -194 -145
-282 -240 -472 -588 -527 -964 -10 -69 -11 -309 -1 -371 l8 -51 -96 -46 c-203
-98 -364 -224 -535 -417 -30 -33 -174 -246 -176 -259 0 -3 -19 -44 -41 -91
-64 -135 -111 -297 -130 -451 -13 -102 -9 -357 6 -439 65 -358 205 -628 451
-870 208 -205 459 -344 745 -410 127 -30 141 -31 330 -35 205 -4 320 11 489
65 165 53 389 169 498 257 18 15 30 23 26 18 -9 -9 23 -34 137 -109 178 -116
379 -190 610 -224 100 -14 414 -7 505 12 575 120 1009 505 1194 1059 50 150
76 339 71 522 -5 168 -9 200 -40 333 -108 452 -432 848 -854 1043 l-72 34 7
85 c14 170 5 309 -31 472 -141 630 -660 1113 -1300 1208 -93 14 -293 19 -385
9z"/>
</g>
</svg>
