<?xml version="1.0" standalone="no"?>
<!DOCTYPE svg PUBLIC "-//W3C//DTD SVG 20010904//EN"
 "http://www.w3.org/TR/2001/REC-SVG-20010904/DTD/svg10.dtd">
<svg version="1.0" xmlns="http://www.w3.org/2000/svg"
 width="512.000000pt" height="512.000000pt" viewBox="0 0 512.000000 512.000000"
 preserveAspectRatio="xMidYMid meet">
<metadata>
Created by potrace 1.11, written by Peter Selinger 2001-2013
</metadata>
<g transform="translate(0.000000,512.000000) scale(0.100000,-0.100000)"
fill="#000000" stroke="none">
<path d="M2395 4958 c-27 -4 -72 -10 -99 -13 -116 -14 -332 -89 -469 -163
-297 -161 -533 -409 -679 -712 -39 -81 -93 -235 -103 -289 -3 -19 -8 -38 -11
-42 -3 -5 -7 -25 -9 -46 -3 -21 -8 -50 -11 -65 -15 -74 -21 -272 -10 -368 l8
-65 -100 -47 c-246 -116 -458 -292 -618 -513 -94 -132 -209 -372 -240 -506
-40 -169 -46 -222 -47 -389 -1 -204 5 -258 49 -425 52 -200 147 -390 279 -560
53 -68 101 -118 214 -226 64 -61 256 -184 366 -234 124 -56 306 -111 405 -121
25 -3 52 -8 60 -11 35 -12 319 -11 405 1 248 37 464 121 682 264 l92 61 43
-33 c203 -154 434 -246 743 -295 72 -12 332 -11 395 1 25 5 62 10 82 13 148
19 393 111 543 205 346 217 589 538 696 922 61 218 70 494 23 728 -64 320
-207 582 -444 813 -97 94 -254 217 -278 217 -6 0 -12 4 -14 9 -1 5 -50 32
-107 60 l-105 51 -1 213 c-1 228 -14 320 -72 496 -27 82 -119 279 -161 345
-298 463 -794 736 -1332 733 -69 -1 -147 -4 -175 -9z m-405 -3018 c0 -5 -5
-10 -11 -10 -5 0 -7 5 -4 10 3 6 8 10 11 10 2 0 4 -4 4 -10z m55 -20 c13 -6
15 -9 5 -9 -8 0 -22 4 -30 9 -18 12 -2 12 25 0z m80 -30 c3 -6 -1 -7 -9 -4
-18 7 -21 14 -7 14 6 0 13 -4 16 -10z m78 -17 c-7 -2 -19 -2 -25 0 -7 3 -2 5
12 5 14 0 19 -2 13 -5z m97 -19 c0 -2 -11 -4 -25 -4 -14 0 -25 4 -25 9 0 4 11
6 25 3 14 -2 25 -6 25 -8z m43 -11 c-7 -2 -19 -2 -25 0 -7 3 -2 5 12 5 14 0
19 -2 13 -5z m106 -9 c10 -9 -65 -3 -78 5 -10 6 1 8 30 4 24 -3 46 -7 48 -9z
m76 -4 c-4 -7 -65 -1 -65 6 0 3 15 4 34 2 19 -1 33 -5 31 -8z"/>
</g>
</svg>
