<svg width="400" height="143" xmlns="http://www.w3.org/2000/svg"><path fill-rule="evenodd" clip-rule="evenodd" d="M382.125 36.019c-9.872 0-17.875-8.063-17.875-18.01C364.25 8.063 372.253 0 382.125 0S400 8.063 400 18.01c0 9.946-8.003 18.009-17.875 18.009zm-59.462-18.01H354.4v122.574h-31.737V18.009zM168.354 97.213V45.391h31.737v95.192h-31.737v-6.616s-8.025 8.637-28.089 8.637-38.669-18.561-38.669-40.245V45.391h31.92v51.822c0 11.027 8.755 16.724 17.146 16.724 8.39 0 17.692-5.697 17.692-16.724zm229.457-51.822h-31.737v95.008h31.737V45.391zm-118.559 0v6.983c-22.617-14.518-52.713-7.718-67.123 15.07-14.409 22.787-7.66 53.109 14.957 67.626 15.869 10.108 36.115 10.108 52.166 0v5.513h31.737V45.391h-31.737zm1.824 51.087c.365-1.837.365-3.859 0-5.696-1.459-12.497-12.768-21.318-25.171-19.664-10.031 1.287-18.057 9.373-19.334 19.48-1.642 12.312 7.114 23.706 19.334 25.36 12.221 1.654 23.53-7.167 25.171-19.48zM70.224 78.837l26.994-33.445H57.273L31.737 76.999V18.193H0v122.39h31.737v-14.15l18.24-22.42 22.618 36.57h35.932L70.224 78.836z" fill="#50B189"/></svg>
